<svg xmlns="http://www.w3.org/2000/svg" width="346.667" height="346.667" preserveAspectRatio="xMidYMid meet" version="1.0" viewBox="0 0 260 260"><metadata>Created by potrace 1.11, written by Peter Selinger 2001-2013</metadata><g fill="#000" stroke="none"><path d="M0 1300 l0 -1300 1300 0 1300 0 0 1300 0 1300 -1300 0 -1300 0 0 -1300z m2037 677 c-3 -8 -127 -212 -276 -454 -149 -243 -271 -445 -271 -451 0 -6 46 -11 108 -13 100 -4 113 -7 158 -34 94 -59 136 -172 99 -270 -20 -50 -104 -135 -135 -135 -11 0 -22 -4 -25 -10 -4 -6 -171 -10 -470 -10 -446 0 -465 1 -512 21 -64 27 -101 63 -129 127 -28 61 -29 82 -9 138 12 35 207 364 334 563 23 35 38 67 35 72 -3 5 -49 9 -103 9 -89 0 -104 3 -152 28 -56 29 -94 76 -117 143 -15 45 -15 65 1 109 32 90 74 132 162 166 47 18 1309 19 1302 1z" transform="translate(0.000000,260.000000) scale(0.100000,-0.100000)"/></g></svg>